<?xml version="1.0" standalone="no"?>
<!DOCTYPE svg PUBLIC "-//W3C//DTD SVG 20010904//EN"
 "http://www.w3.org/TR/2001/REC-SVG-20010904/DTD/svg10.dtd">
<svg version="1.0" xmlns="http://www.w3.org/2000/svg"
 width="590.000000pt" height="492.000000pt" viewBox="0 0 590.000000 492.000000"
 preserveAspectRatio="xMidYMid meet">
 
<g transform="translate(0.000000,492.000000) scale(0.100000,-0.100000)"
fill="#666666" stroke="none">
<path d="M0 4665 c0 -140 3 -255 8 -255 4 1 31 35 60 78 29 42 104 149 167
237 63 88 120 168 125 178 10 16 -1 17 -175 17 l-185 0 0 -255z"/>
<path d="M870 4913 c0 -7 -150 -216 -178 -248 -10 -12 -50 -69 -122 -175 -25
-36 -47 -67 -50 -70 -3 -3 -14 -18 -24 -35 -11 -16 -23 -34 -28 -40 -17 -21
-77 -105 -162 -225 -110 -156 -127 -179 -226 -316 l-80 -111 2 -368 3 -367 65
91 c86 120 138 192 156 214 7 9 14 20 14 23 0 2 5 10 10 17 9 10 558 780 917
1285 59 83 132 185 161 225 89 120 112 107 -193 107 -146 0 -265 -3 -265 -7z"/>
<path d="M1897 4907 c-5 -12 -114 -169 -234 -336 -35 -47 -85 -117 -112 -156
-27 -38 -72 -101 -100 -140 -27 -38 -62 -88 -78 -110 -15 -22 -52 -74 -83
-115 -30 -41 -68 -95 -84 -119 -16 -25 -33 -50 -38 -55 -19 -24 -107 -145
-149 -206 -24 -36 -48 -70 -54 -76 -5 -7 -37 -51 -70 -99 -64 -94 -166 -237
-250 -350 -28 -38 -96 -133 -150 -210 -55 -77 -131 -184 -169 -238 -39 -54
-75 -106 -81 -115 -5 -9 -12 -19 -15 -22 -3 -3 -56 -76 -118 -162 l-112 -157
0 -353 1 -353 25 30 c13 17 64 86 112 154 48 68 115 162 149 210 34 47 90 127
124 176 35 50 65 92 69 95 8 7 101 138 124 175 10 16 22 32 25 35 4 3 35 46
70 95 34 50 97 140 141 200 44 61 107 151 142 200 34 50 66 92 70 93 4 2 8 10
8 17 0 7 4 15 8 17 5 2 24 25 43 52 19 27 48 68 64 91 27 37 97 136 360 505
39 54 124 174 189 267 66 92 142 200 171 238 28 39 118 165 200 280 82 116
186 262 232 326 46 64 83 119 83 123 0 3 -114 6 -254 6 -195 0 -255 -3 -259
-13z"/>
<path d="M2910 4899 c-8 -12 -37 -53 -65 -91 -27 -37 -104 -145 -170 -239 -66
-93 -150 -211 -186 -262 -36 -51 -98 -137 -137 -192 -39 -55 -75 -105 -80
-111 -5 -6 -35 -48 -67 -95 -32 -46 -72 -102 -89 -124 -17 -21 -35 -47 -41
-57 -9 -16 -386 -546 -525 -738 -86 -118 -205 -286 -343 -482 -65 -92 -124
-173 -131 -181 -8 -7 -26 -33 -42 -58 -16 -25 -90 -129 -164 -233 -74 -104
-155 -217 -180 -252 -25 -35 -79 -110 -120 -168 -82 -115 -163 -230 -183 -260
-6 -10 -19 -28 -28 -40 -9 -11 -94 -129 -188 -261 l-171 -239 0 -353 c0 -194
1 -353 3 -353 2 0 26 33 55 73 145 203 269 377 300 422 20 28 79 111 132 185
53 74 157 221 232 325 221 311 247 347 289 405 72 99 312 437 389 547 41 58
100 141 130 182 31 42 82 114 115 161 51 75 111 158 221 310 18 25 110 153
203 285 237 334 268 378 331 464 31 42 81 112 111 156 74 107 114 163 188 265
34 47 181 254 328 460 147 206 294 413 328 460 34 47 65 91 69 98 6 9 -46 12
-246 12 -248 0 -254 0 -268 -21z"/>
<path d="M3921 4898 c-8 -13 -62 -90 -120 -171 -58 -81 -113 -158 -121 -170
-8 -12 -75 -107 -150 -212 -74 -104 -143 -201 -153 -215 -43 -62 -140 -200
-231 -327 -55 -76 -124 -172 -153 -213 -30 -41 -87 -120 -126 -175 -40 -55
-93 -129 -117 -164 -25 -35 -60 -85 -78 -110 -18 -25 -55 -77 -82 -116 -27
-38 -80 -113 -118 -166 -38 -52 -89 -124 -114 -160 -25 -35 -129 -181 -231
-324 -102 -143 -205 -288 -229 -322 -24 -34 -46 -62 -50 -63 -5 0 -8 -4 -8
-10 0 -5 -37 -60 -82 -122 -70 -97 -155 -216 -208 -292 -8 -11 -60 -84 -115
-161 -55 -77 -108 -151 -117 -165 -29 -42 -129 -183 -204 -287 -98 -135 -245
-341 -464 -649 -69 -97 -142 -200 -162 -228 -20 -28 -37 -57 -38 -63 0 -10 56
-13 250 -13 229 0 251 1 257 17 4 10 21 36 38 59 38 51 64 88 175 244 49 69
93 130 97 135 5 6 29 39 53 75 24 36 88 126 141 200 54 74 107 149 119 165 11
17 52 73 89 125 38 52 88 123 112 157 60 85 156 219 234 328 36 50 84 117 107
150 23 33 80 114 128 180 47 66 119 167 160 225 40 58 105 149 144 202 39 53
107 148 150 210 44 62 92 131 108 153 17 22 79 110 139 195 61 85 117 164 124
175 43 59 93 129 222 310 78 110 146 205 150 210 5 6 31 42 58 80 169 240 286
405 362 509 32 44 79 109 104 145 25 36 95 135 155 218 220 308 314 441 314
447 0 3 -114 6 -253 6 -251 0 -252 0 -266 -22z"/>
<path d="M4865 4794 c-49 -69 -115 -161 -145 -204 -30 -43 -114 -161 -186
-262 -72 -101 -188 -264 -259 -363 -70 -99 -145 -202 -165 -230 -20 -27 -94
-131 -164 -230 -70 -99 -168 -236 -217 -305 -50 -69 -178 -249 -285 -400 -107
-151 -243 -342 -302 -425 -60 -82 -153 -213 -207 -290 -254 -359 -351 -494
-389 -544 -23 -30 -68 -93 -101 -141 -33 -48 -79 -114 -102 -146 -77 -107
-163 -228 -215 -304 -29 -41 -72 -102 -97 -135 -25 -34 -50 -68 -56 -77 -11
-17 -185 -261 -245 -343 -20 -27 -58 -81 -85 -120 -27 -38 -79 -111 -117 -162
-37 -51 -68 -97 -68 -102 0 -8 80 -11 245 -11 148 0 245 4 245 9 0 6 21 39 48
74 26 35 82 113 124 173 42 60 133 188 202 284 69 96 146 204 171 240 25 36
64 90 86 120 22 30 64 91 95 135 31 44 68 96 82 116 73 100 178 246 213 297
21 31 60 87 86 123 27 37 100 140 163 228 192 270 284 396 292 399 5 2 8 7 8
12 0 6 128 193 168 245 4 6 19 26 32 45 13 19 28 40 32 45 5 6 87 120 182 255
96 135 202 283 236 330 126 175 178 247 235 330 60 88 126 180 230 323 33 45
87 120 120 167 32 47 63 90 67 95 4 6 57 80 117 165 60 85 148 209 196 275
241 336 305 426 305 430 0 3 -109 5 -242 5 l-243 0 -90 -126z"/>
<path d="M5866 4799 c-16 -24 -82 -116 -146 -204 -64 -88 -141 -196 -172 -240
-79 -112 -90 -127 -171 -241 -40 -56 -97 -136 -127 -179 -30 -43 -72 -101 -92
-129 -20 -28 -86 -121 -147 -206 -60 -85 -114 -159 -118 -165 -5 -5 -24 -32
-43 -60 -18 -27 -36 -52 -39 -55 -3 -3 -10 -12 -16 -21 -22 -36 -119 -174
-125 -179 -7 -5 -100 -134 -165 -230 -22 -32 -72 -102 -111 -157 -39 -54 -112
-156 -163 -228 -51 -71 -106 -148 -122 -170 -16 -22 -50 -70 -75 -108 -25 -37
-51 -73 -58 -80 -7 -6 -36 -46 -64 -87 -69 -100 -166 -236 -451 -637 -102
-142 -223 -311 -270 -376 -47 -65 -104 -145 -126 -177 -22 -32 -166 -236 -321
-452 -154 -216 -284 -399 -288 -405 -6 -10 46 -13 246 -13 l253 1 133 187 c73
103 171 241 218 307 46 66 90 127 98 136 7 9 33 44 57 79 24 35 59 84 77 109
18 25 41 57 50 71 30 43 231 325 240 336 12 13 94 131 107 152 6 10 13 19 16
22 5 5 285 396 319 447 34 50 403 568 520 729 88 122 147 204 352 494 84 119
162 228 173 242 11 15 44 62 74 105 30 43 78 110 106 148 28 39 81 113 118
165 36 52 94 134 129 183 35 48 80 111 100 140 21 28 42 57 48 64 7 8 9 132 8
369 l-3 358 -29 -45z"/>
<path d="M5877 3396 c-3 -8 -59 -88 -123 -178 -102 -142 -172 -241 -257 -361
-12 -18 -25 -34 -28 -37 -3 -3 -24 -32 -47 -65 -23 -33 -75 -107 -116 -165
-41 -58 -96 -134 -121 -170 -25 -36 -68 -96 -96 -135 -28 -38 -69 -97 -91
-130 -23 -33 -94 -132 -158 -220 -111 -153 -188 -260 -275 -385 -61 -87 -161
-228 -245 -344 -41 -57 -81 -112 -88 -122 -7 -11 -42 -59 -78 -109 -36 -49
-93 -130 -127 -179 -34 -49 -71 -101 -82 -116 -11 -15 -40 -56 -65 -91 -24
-35 -48 -68 -53 -74 -4 -5 -41 -57 -82 -115 -41 -58 -78 -109 -82 -115 -22
-26 -193 -274 -193 -279 0 -3 109 -6 243 -6 l242 0 17 28 c9 15 56 81 103 147
48 66 125 174 171 240 80 115 263 370 306 427 26 35 172 242 239 338 50 72
145 204 162 225 8 10 81 112 255 358 53 76 111 157 127 180 17 23 64 89 105
147 41 58 78 110 83 115 4 6 37 53 74 105 37 52 83 118 103 145 64 88 85 118
143 202 l57 82 0 335 c0 302 -5 370 -23 322z"/>
<path d="M5790 1873 c-116 -164 -346 -490 -374 -528 -8 -11 -27 -38 -43 -61
-49 -71 -477 -669 -482 -674 -4 -3 -10 -13 -16 -22 -5 -9 -43 -63 -84 -120
-41 -57 -106 -148 -144 -203 -39 -55 -73 -102 -76 -105 -4 -3 -30 -40 -59 -82
l-53 -78 260 0 c177 0 261 3 261 11 0 5 33 56 73 112 41 56 89 125 109 152 19
28 75 106 124 175 50 69 96 135 104 147 13 19 262 368 412 578 31 44 66 92 77
107 20 25 21 38 21 377 0 193 -3 351 -7 351 -5 -1 -51 -62 -103 -137z"/>
<path d="M5864 599 c-16 -23 -33 -49 -39 -58 -5 -9 -22 -32 -37 -52 -16 -20
-28 -39 -28 -42 0 -4 -10 -18 -22 -33 -13 -14 -36 -45 -53 -69 -81 -116 -149
-211 -155 -215 -10 -7 -80 -116 -80 -124 0 -3 101 -6 225 -6 l225 0 0 320 c0
176 -2 320 -4 320 -2 0 -16 -19 -32 -41z"/>
</g>
</svg>
